<svg xmlns="http://www.w3.org/2000/svg" version="1.1" xmlns:xlink="http://www.w3.org/1999/xlink" xmlns:svgjs="http://svgjs.dev/svgjs" width="1440" height="720" preserveAspectRatio="none" viewBox="0 0 1440 720"><g mask="url(&quot;#SvgjsMask1018&quot;)" fill="none"><rect width="1440" height="720" x="0" y="0" fill="#0e2a47"></rect><path d="M 0,221 C 28.8,191.2 86.4,66 144,72 C 201.6,78 230.4,230.2 288,251 C 345.6,271.8 374.4,186.6 432,176 C 489.6,165.4 518.4,201.8 576,198 C 633.6,194.2 662.4,154 720,157 C 777.6,160 806.4,229.6 864,213 C 921.6,196.4 950.4,77.6 1008,74 C 1065.6,70.4 1094.4,186.6 1152,195 C 1209.6,203.4 1238.4,84.6 1296,116 C 1353.6,147.4 1411.2,304.8 1440,352L1440 720L0 720z" fill="#184a7e"></path><path d="M 0,590 C 72,548.8 216,375.2 360,384 C 504,392.8 576,638.4 720,634 C 864,629.6 936,364.8 1080,362 C 1224,359.2 1368,568.4 1440,620L1440 720L0 720z" fill="#2264ab"></path></g><defs><mask id="SvgjsMask1018"><rect width="1440" height="720" fill="#ffffff"></rect></mask></defs></svg>